{"title":"Sexy Back - Justin Timberlake HDTV","uid":6404098,"size":145958912,"categoryP":"video","categoryS":"music_videos","magnet":"?xt=urn:btih:d06b8aebfbb64111921bd6881fe60dc97f13a4d7&amp;dn=Sexy+Back+-+Justin+Timberlake+HDTV&amp;tr=udp%3A%2F%2Ftracker.openbittorrent.com%3A80&amp;tr=udp%3A%2F%2Fopen.demonii.com%3A1337&amp;tr=udp%3A%2F%2Ftracker.coppersurfer.tk%3A6969&amp;tr=udp%3A%2F%2Fexodus.desync.com%3A6969","seeders":1,"leechers":0,"uploader":"x.zone","files":-1,"time":1305751957,"description":"---------------------------- SEXY BACK HDTV --------------------------------\n\nFormat                           : AVI\nFormat/Info                      : Audio Video Interleave\nFile size                        : 139 MiB\nDuration                         : 4mn 25s\nOverall bit rate                 : 4 397 Kbps\nWriting application              : VirtualDubMod 1.5.10.2 (build 2542/release)\nWriting library                  : VirtualDubMod build 2542/release\n\nVideo\nID                               : 0\nFormat                           : MPEG-4 Visual\nFormat settings, BVOP            : Yes\nFormat settings, QPel            : No\nFormat settings, GMC             : No warppoints\nFormat settings, Matrix          : Default (H.263)\nMuxing mode                      : Packed bitstream\nCodec ID                         : DX50\nCodec ID/Hint                    : DivX 5\nDuration                         : 4mn 25s\nBit rate                         : 4 003 Kbps\nWidth                            : 1 280 pixels\nHeight                           : 616 pixels\nDisplay aspect ratio             : 2.078\nFrame rate                       : 24.000 fps\nColor space                      : YUV\nChroma subsampling               : 4:2:0\nBit depth                        : 8 bits\nScan type                        : Progressive\nBits/(Pixel*Frame)               : 0.212\nStream size                      : 127 MiB (91%)\nWriting library                  : DivX 6.2.5 (UTC 2006-06-16)\n\nAudio\nID                               : 1\nFormat                           : AC-3\nFormat/Info                      : Audio Coding 3\nMode extension                   : CM (complete main)\nCodec ID                         : 2000\nDuration                         : 4mn 25s\nBit rate mode                    : Constant\nBit rate                         : 384 Kbps\nChannel(s)                       : 2 channels\nChannel positions                : Front: L R\nSampling rate                    : 48.0 KHz\nVideo delay                      : 7ms\nStream size                      : 12.2 MiB (9%)\nAlignment                        : Split accross interleaves\nInterleave, duration             : 42 ms (1.00 video frame)\nInterleave, preload duration     : 500 ms\n\n===================================================================================\n                         &lt;a href=&quot; http://bayimg.com/baIidaadc&quot; rel=&quot;nofollow&quot; target=&quot;_NEW&quot;&gt; http://bayimg.com/baIidaadc&lt;/a&gt;\n===================================================================================\n\n===================================================================================\n                         \n===================================================================================","torrent":{"xt":"urn:btih:d06b8aebfbb64111921bd6881fe60dc97f13a4d7","amp;dn":"Sexy+Back+-+Justin+Timberlake+HDTV","amp;tr":["udp%3A%2F%2Ftracker.openbittorrent.com%3A80","udp%3A%2F%2Fopen.demonii.com%3A1337","udp%3A%2F%2Ftracker.coppersurfer.tk%3A6969","udp%3A%2F%2Fexodus.desync.com%3A6969"],"infoHash":"d06b8aebfbb64111921bd6881fe60dc97f13a4d7","infoHashBuffer":{"type":"Buffer","data":[208,107,138,235,251,182,65,17,146,27,214,136,31,230,13,201,127,19,164,215]},"announce":[],"urlList":[]}}